<svg width="25" height="24" viewBox="0 0 25 24" fill="none" xmlns="http://www.w3.org/2000/svg">
<g id="Component/Icon">
<g id="Vector">
<path fill-rule="evenodd" clip-rule="evenodd" d="M18 19C18.2761 19 18.5 18.7761 18.5 18.5V9.37818C18.5 9.2373 18.4406 9.10296 18.3363 9.00819L12.8363 4.00869C12.6456 3.83534 12.3544 3.83534 12.1637 4.00869L6.66368 9.00819C6.55943 9.10295 6.5 9.2373 6.5 9.37818V18.5C6.5 18.7761 6.72386 19 7 19H18ZM19.5 21H5.5C5.23478 21 4.98043 20.8946 4.79289 20.7071C4.60536 20.5196 4.5 20.2652 4.5 20V11.5C4.5 11.2238 4.27614 11 4 11H2.79332C2.3363 11 2.11882 10.4374 2.45699 10.13L11.827 1.61198C12.0111 1.44446 12.2511 1.35162 12.5 1.35162C12.7489 1.35162 12.9889 1.44446 13.173 1.61198L22.543 10.13C22.8812 10.4374 22.6637 11 22.2067 11H21C20.7239 11 20.5 11.2238 20.5 11.5V20C20.5 20.2652 20.3946 20.5196 20.2071 20.7071C20.0196 20.8946 19.7652 21 19.5 21Z" fill="#A6A6A6"/>
<path d="M8.5 14.5C8.5 14.2238 8.7254 13.9957 8.99771 14.0415C9.60873 14.1443 10.1774 14.4348 10.6213 14.8787C11.0652 15.3226 11.3556 15.8912 11.4584 16.5023C11.5043 16.7746 11.2761 17 11 17H9C8.72386 17 8.5 16.7761 8.5 16.5V14.5Z" fill="#A6A6A6"/>
<path d="M8.5 10.5C8.5 10.2238 8.72417 9.99812 8.99961 10.0178C10.6735 10.1375 12.2553 10.8557 13.4497 12.0502C14.6442 13.2447 15.3625 14.8265 15.4822 16.5004C15.5019 16.7758 15.2761 17 15 17H14C13.7239 17 13.5026 16.7756 13.475 16.5008C13.3604 15.358 12.8548 14.2837 12.0355 13.4644C11.2163 12.6452 10.1419 12.1396 8.99919 12.0249C8.72442 11.9974 8.5 11.7761 8.5 11.5V10.5Z" fill="#A6A6A6"/>
</g>
</g>
</svg>
