<svg width="12" height="10" viewBox="0 0 12 10" fill="none" xmlns="http://www.w3.org/2000/svg">
<path id="Combined Shape" d="M0 4.9999C0 4.72376 0.205203 4.49554 0.47144 4.45942L0.545455 4.45444L10.1338 4.45488L6.66983 1.00504C6.45636 0.792487 6.45561 0.447125 6.66817 0.233654C6.8614 0.0395889 7.16439 0.0213318 7.37826 0.179312L7.43955 0.231993L11.8396 4.61308C11.8677 4.6411 11.8921 4.67142 11.9129 4.70345C11.9187 4.71308 11.9247 4.72295 11.9304 4.733C11.9356 4.74163 11.9403 4.75058 11.9447 4.75963C11.9508 4.7728 11.9569 4.78641 11.9623 4.80029C11.9668 4.811 11.9705 4.82141 11.9738 4.8319C11.9779 4.84492 11.9818 4.85879 11.9851 4.87287C11.9876 4.8827 11.9896 4.89216 11.9913 4.90165C11.9938 4.91579 11.9958 4.93041 11.9973 4.94521C11.9986 4.95649 11.9993 4.96768 11.9998 4.97887C11.9999 4.98566 12 4.99276 12 4.9999L11.9997 5.02103C11.9993 5.03173 11.9986 5.04243 11.9975 5.0531L12 4.9999C12 5.03432 11.9968 5.068 11.9907 5.10065C11.9893 5.10845 11.9876 5.11645 11.9858 5.12442C11.9819 5.14084 11.9774 5.15666 11.9722 5.17216C11.9697 5.17986 11.9668 5.18809 11.9636 5.19626C11.9572 5.21267 11.9503 5.22832 11.9427 5.24356C11.9391 5.25072 11.9352 5.25822 11.931 5.26565C11.9242 5.27776 11.9172 5.28928 11.9098 5.3005C11.9045 5.30844 11.8987 5.31671 11.8927 5.32485L11.8879 5.33113C11.8733 5.35033 11.8573 5.36853 11.8402 5.38559L11.8396 5.3861L7.43959 9.76792C7.22613 9.98049 6.88077 9.97977 6.6682 9.76632C6.47495 9.57227 6.45797 9.26921 6.61686 9.056L6.6698 8.99493L10.1324 5.54579L0.545455 5.54535C0.244208 5.54535 0 5.30115 0 4.9999Z" fill="#0080FF"/>
</svg>
